<svg id="visual" viewBox="0 0 900 600" width="900" height="600" xmlns="http://www.w3.org/2000/svg" xmlns:xlink="http://www.w3.org/1999/xlink" version="1.1"><rect x="0" y="0" width="900" height="600" fill="#b39683"></rect><defs><linearGradient id="grad1_0" x1="33.3%" y1="0%" x2="100%" y2="100%"><stop offset="20%" stop-color="#9a8070" stop-opacity="1"></stop><stop offset="80%" stop-color="#9a8070" stop-opacity="1"></stop></linearGradient></defs><defs><linearGradient id="grad1_1" x1="33.3%" y1="0%" x2="100%" y2="100%"><stop offset="20%" stop-color="#9a8070" stop-opacity="1"></stop><stop offset="80%" stop-color="#a28776" stop-opacity="1"></stop></linearGradient></defs><defs><linearGradient id="grad1_2" x1="33.3%" y1="0%" x2="100%" y2="100%"><stop offset="20%" stop-color="#ab8f7d" stop-opacity="1"></stop><stop offset="80%" stop-color="#a28776" stop-opacity="1"></stop></linearGradient></defs><defs><linearGradient id="grad1_3" x1="33.3%" y1="0%" x2="100%" y2="100%"><stop offset="20%" stop-color="#ab8f7d" stop-opacity="1"></stop><stop offset="80%" stop-color="#b39683" stop-opacity="1"></stop></linearGradient></defs><defs><linearGradient id="grad2_0" x1="0%" y1="0%" x2="66.7%" y2="100%"><stop offset="20%" stop-color="#9a8070" stop-opacity="1"></stop><stop offset="80%" stop-color="#9a8070" stop-opacity="1"></stop></linearGradient></defs><defs><linearGradient id="grad2_1" x1="0%" y1="0%" x2="66.7%" y2="100%"><stop offset="20%" stop-color="#a28776" stop-opacity="1"></stop><stop offset="80%" stop-color="#9a8070" stop-opacity="1"></stop></linearGradient></defs><defs><linearGradient id="grad2_2" x1="0%" y1="0%" x2="66.7%" y2="100%"><stop offset="20%" stop-color="#a28776" stop-opacity="1"></stop><stop offset="80%" stop-color="#ab8f7d" stop-opacity="1"></stop></linearGradient></defs><defs><linearGradient id="grad2_3" x1="0%" y1="0%" x2="66.7%" y2="100%"><stop offset="20%" stop-color="#b39683" stop-opacity="1"></stop><stop offset="80%" stop-color="#ab8f7d" stop-opacity="1"></stop></linearGradient></defs><g transform="translate(900, 0)"><path d="M0 513.8C-50.4 503.3 -100.8 492.8 -156.4 481.2C-211.9 469.7 -272.5 457.1 -302 415.7C-331.5 374.2 -329.9 303.9 -354.3 257.4C-378.8 211 -429.4 188.5 -460.3 149.6C-491.2 110.6 -502.5 55.3 -513.8 0L0 0Z" fill="#af9280"></path><path d="M0 385.3C-37.8 377.5 -75.6 369.6 -117.3 360.9C-158.9 352.3 -204.4 342.8 -226.5 311.7C-248.6 280.7 -247.4 227.9 -265.8 193.1C-284.1 158.3 -322 141.4 -345.2 112.2C-368.4 83 -376.9 41.5 -385.3 0L0 0Z" fill="#a68b79"></path><path d="M0 256.9C-25.2 251.6 -50.4 246.4 -78.2 240.6C-105.9 234.8 -136.3 228.6 -151 207.8C-165.7 187.1 -164.9 151.9 -177.2 128.7C-189.4 105.5 -214.7 94.2 -230.2 74.8C-245.6 55.3 -251.3 27.7 -256.9 0L0 0Z" fill="#9e8473"></path><path d="M0 128.4C-12.6 125.8 -25.2 123.2 -39.1 120.3C-53 117.4 -68.1 114.3 -75.5 103.9C-82.9 93.6 -82.5 76 -88.6 64.4C-94.7 52.8 -107.3 47.1 -115.1 37.4C-122.8 27.7 -125.6 13.8 -128.4 0L0 0Z" fill="#9a8070"></path></g><g transform="translate(0, 600)"><path d="M0 -513.8C53.1 -509.3 106.2 -504.7 158.8 -488.6C211.3 -472.6 263.3 -444.9 291.5 -401.3C319.7 -357.6 324.1 -298 352.7 -256.3C381.3 -214.6 434.2 -190.8 465.1 -151.1C495.9 -111.4 504.9 -55.7 513.8 0L0 0Z" fill="#af9280"></path><path d="M0 -385.3C39.8 -381.9 79.7 -378.5 119.1 -366.5C158.5 -354.4 197.5 -333.7 218.7 -301C239.8 -268.2 243.1 -223.5 264.5 -192.2C286 -160.9 325.6 -143.1 348.8 -113.3C372 -83.5 378.7 -41.8 385.3 0L0 0Z" fill="#a68b79"></path><path d="M0 -256.9C26.6 -254.6 53.1 -252.4 79.4 -244.3C105.7 -236.3 131.7 -222.5 145.8 -200.6C159.9 -178.8 162.1 -149 176.4 -128.1C190.7 -107.3 217.1 -95.4 232.5 -75.6C248 -55.7 252.4 -27.8 256.9 0L0 0Z" fill="#9e8473"></path><path d="M0 -128.4C13.3 -127.3 26.6 -126.2 39.7 -122.2C52.8 -118.1 65.8 -111.2 72.9 -100.3C79.9 -89.4 81 -74.5 88.2 -64.1C95.3 -53.6 108.5 -47.7 116.3 -37.8C124 -27.8 126.2 -13.9 128.4 0L0 0Z" fill="#9a8070"></path></g></svg>