<svg xmlns="http://www.w3.org/2000/svg" viewBox="0 0 400 400">
    <path fill="#23b4ff" d="M200.35 35.4a156.41 156.41 0 0 1 79.73 22l17.6 8.3 47.26-8.85-7.58 47.8c40.25 62.42 35.95 154.36-18.19 210a165.8 165.8 0 0 1-233.25 4 162.91 162.91 0 0 1-4-231.55C115 53.08 157.55 35.4 200.35 35.4m0-35.4C146.61 0 95.43 22.19 56.23 62.47c-76.86 79-74.65 205.32 4.92 281.62a201.65 201.65 0 0 0 283.67-4.89c60.64-62.31 72.43-163.87 29.75-241.62l5.6-35.26 7.83-49.6L338.32 22l-35.83 6.71-5.69-2.69A193 193 0 0 0 200.35 0Z"/>
    <path fill="#23b4ff" d="M198.52 333.93A129.62 129.62 0 0 1 93.4 280l29.06-20.52a93.56 93.56 0 0 0 152.1 0l29 20.54a129.62 129.62 0 0 1-105.04 53.91Z"/>
</svg>